<?xml version="1.0" encoding="utf-8"?>
<!-- Generator: Adobe Illustrator 20.1.0, SVG Export Plug-In . SVG Version: 6.00 Build 0)  -->
<svg version="1.1" id="Layer_1" xmlns="http://www.w3.org/2000/svg" xmlns:xlink="http://www.w3.org/1999/xlink" x="0px" y="0px"
	 viewBox="0 0 512 512" enable-background="new 0 0 512 512" xml:space="preserve">
<g id="drummachinelogo">
	<g id="drum">
		<path fill="#808285" d="M256,12C121.5,12,12,121.5,12,256c0,134.5,109.5,244,244,244c134.5,0,244-109.5,244-244
			C500,121.5,390.5,12,256,12z M256,496C123.7,496,16,388.3,16,256S123.7,16,256,16s240,107.7,240,240S388.3,496,256,496z"/>
		<path fill="#808285" d="M256,0C114.6,0,0,114.6,0,256s114.6,256,256,256s256-114.6,256-256S397.4,0,256,0z M256,508
			C117,508,4,395,4,256S117,4,256,4s252,113,252,252S395,508,256,508z"/>
		<path fill="#939598" d="M256,4C117,4,4,117,4,256s113,252,252,252s252-113,252-252S395,4,256,4z M256,500
			C121.5,500,12,390.5,12,256C12,121.5,121.5,12,256,12c134.5,0,244,109.5,244,244C500,390.5,390.5,500,256,500z"/>
	</g>
	<g id="stick">
		<g>
			<path fill="#A97C50" d="M509.9,11.9c2.7-2.7,2.8-7,0.1-9.8c-2.7-2.7-7-2.8-9.8-0.1c0,0-0.1,0.1-0.1,0.1L349.2,157.2
				c-8.5,8.5-17,17-25.5,25.5c-44.6,44.6-89.3,89.3-122.7,122.7c-2.1,2.1-4.1,4.1-6.2,6.1c-2.1,1.9-4,3.9-5.8,5.9
				c-3.6,4-7,7.9-10.2,11.5c-3.6,4-7,7.8-10,11.3c0.7,0.3,1.3,0.7,1.8,1.2c0.5,0.5,0.9,1.2,1.2,1.8c3.5-3,7.2-6.4,11.3-10
				c3.6-3.2,7.4-6.6,11.5-10.2c2-1.8,4-3.8,5.9-5.8c2-2,4-4.1,6.1-6.2c33.5-33.5,78.1-78.1,122.7-122.7c8.5-8.5,17.1-17.1,25.5-25.5
				L509.9,11.9z M509.2,11.1l-155.1,151L205.3,310.9c-1.9,1.9-3.8,3.8-5.6,5.7c-1.9,2-3.8,3.9-5.8,5.8l-11.5,10.2
				c-3.7,3.3-7.1,6.4-10.3,9.2c-0.2-0.4-0.5-0.7-0.8-1c-0.3-0.3-0.6-0.5-1-0.8c2.8-3.2,5.9-6.6,9.2-10.3l10.2-11.4
				c1.8-2,3.8-4,5.8-5.9c1.9-1.8,3.8-3.7,5.7-5.7l148.7-148.7L501,2.7c2.3-2.2,6-2.2,8.3,0.1l0.1,0.1
				C511.6,5.1,511.5,8.9,509.2,11.1z"/>
			<path fill="#C49A6C" d="M354.1,162.1L205.3,310.9c-1.9,1.9-3.8,3.8-5.6,5.7c-1.9,2-3.8,3.9-5.8,5.8l-11.5,10.2
				c-3.7,3.3-7.1,6.4-10.3,9.2c-0.2-0.4-0.5-0.7-0.8-1c-0.3-0.3-0.6-0.5-1-0.8c2.8-3.2,5.9-6.6,9.2-10.3l10.2-11.4
				c1.8-2,3.8-4,5.8-5.9c1.9-1.8,3.8-3.7,5.7-5.7l148.7-148.7L501,2.7c2.3-2.2,6-2.2,8.3,0.1l0.1,0.1c2.3,2.3,2.2,6.1-0.1,8.4
				L354.1,162.1z"/>
		</g>
		<g>
			<path fill="#B3B3B3" d="M168.7,354.6c3.5-3.5,4.6-8.1,3.1-11.4c-0.3-0.7-0.7-1.3-1.2-1.8c-0.5-0.5-1.2-0.9-1.8-1.2
				c-3.3-1.5-7.9-0.4-11.4,3.1c-4.2,4.2-12.6,17.6-9.4,20.7l0,0C151.1,367.2,164.5,358.8,168.7,354.6z M168,353.9
				c-4.8,4.8-17.1,11.7-19.3,9.4s4.7-14.6,9.4-19.3c3.1-3.1,7.3-4.2,10.2-2.9c0.7,0.3,1.2,0.6,1.6,1c0.4,0.4,0.7,0.9,1,1.6
				C172.2,346.7,171,350.9,168,353.9z"/>
			<path fill="#D1D3D4" d="M148.6,363.4c-2.2-2.2,4.7-14.6,9.4-19.3c3.1-3.1,7.3-4.2,10.2-2.9c0.7,0.3,1.2,0.6,1.6,1
				c0.4,0.4,0.7,0.9,1,1.6c1.3,3,0.2,7.2-2.9,10.2C163.2,358.7,150.9,365.6,148.6,363.4z"/>
		</g>
	</g>
	<g id="stick_1_">
		<g>
			<path fill="#A97C50" d="M445.9,11.9c2.7-2.7,2.8-7,0.1-9.8c-2.7-2.7-7-2.8-9.8-0.1c0,0-0.1,0.1-0.1,0.1L285.2,157.2
				c-8.5,8.5-17,17-25.5,25.5c-44.6,44.6-89.3,89.3-122.7,122.7c-2.1,2.1-4.1,4.1-6.2,6.1c-2.1,1.9-4,3.9-5.8,5.9
				c-3.6,4-7,7.9-10.2,11.5c-3.6,4-7,7.8-10,11.3c0.7,0.3,1.3,0.7,1.8,1.2c0.5,0.5,0.9,1.2,1.2,1.8c3.5-3,7.2-6.4,11.3-10
				c3.6-3.2,7.4-6.6,11.5-10.2c2-1.8,4-3.8,5.9-5.8c2-2,4-4.1,6.1-6.2c33.5-33.5,78.1-78.1,122.7-122.7c8.5-8.5,17.1-17.1,25.5-25.5
				L445.9,11.9z M445.2,11.1l-155.1,151L141.3,310.9c-1.9,1.9-3.8,3.8-5.6,5.7c-1.9,2-3.8,3.9-5.8,5.8l-11.5,10.2
				c-3.7,3.3-7.1,6.4-10.3,9.2c-0.2-0.4-0.5-0.7-0.8-1s-0.6-0.5-1-0.8c2.8-3.2,5.9-6.6,9.2-10.3l10.2-11.4c1.8-2,3.8-4,5.8-5.9
				c1.9-1.8,3.8-3.7,5.7-5.7l148.7-148.7L437,2.7c2.3-2.2,6-2.2,8.3,0.1l0.1,0.1C447.6,5.1,447.5,8.9,445.2,11.1z"/>
			<path fill="#C49A6C" d="M290.1,162.1L141.3,310.9c-1.9,1.9-3.8,3.8-5.6,5.7c-1.9,2-3.8,3.9-5.8,5.8l-11.5,10.2
				c-3.7,3.3-7.1,6.4-10.3,9.2c-0.2-0.4-0.5-0.7-0.8-1s-0.6-0.5-1-0.8c2.8-3.2,5.9-6.6,9.2-10.3l10.2-11.4c1.8-2,3.8-4,5.8-5.9
				c1.9-1.8,3.8-3.7,5.7-5.7l148.7-148.7L437,2.7c2.3-2.2,6-2.2,8.3,0.1l0.1,0.1c2.3,2.3,2.2,6.1-0.1,8.4L290.1,162.1z"/>
		</g>
		<g>
			<path fill="#B3B3B3" d="M104.7,354.6c3.5-3.5,4.6-8.1,3.1-11.4c-0.3-0.7-0.7-1.3-1.2-1.8c-0.5-0.5-1.2-0.9-1.8-1.2
				c-3.3-1.5-7.9-0.4-11.4,3.1c-4.2,4.2-12.6,17.6-9.4,20.7l0,0C87.1,367.2,100.5,358.8,104.7,354.6z M104,353.9
				c-4.8,4.8-17.1,11.7-19.3,9.4s4.7-14.6,9.4-19.3c3.1-3.1,7.3-4.2,10.2-2.9c0.7,0.3,1.2,0.6,1.6,1c0.4,0.4,0.7,0.9,1,1.6
				C108.2,346.7,107,350.9,104,353.9z"/>
			<path fill="#D1D3D4" d="M84.6,363.4c-2.2-2.2,4.7-14.6,9.4-19.3c3.1-3.1,7.3-4.2,10.2-2.9c0.7,0.3,1.2,0.6,1.6,1
				c0.4,0.4,0.7,0.9,1,1.6c1.3,3,0.2,7.2-2.9,10.2C99.2,358.7,86.9,365.6,84.6,363.4z"/>
		</g>
	</g>
</g>
</svg>
